<svg width="685" height="102" viewBox="0 0 685 102" fill="none" xmlns="http://www.w3.org/2000/svg">
<rect y="4.5" width="446" height="93" rx="46.5" fill="white"/>
<path d="M64.0215 74.5H51.8877L51.8877 27.8447L64.0215 27.8447L64.0215 74.5Z" fill="#FF4500"/>
<path d="M120.418 74.5H108.284L85.9648 45.9258V74.5L73.8311 74.5L73.8311 27.8447L85.9648 27.8447L108.284 56.3848L108.284 27.8447L120.418 27.8447V74.5Z" fill="#FF4500"/>
<path d="M156.956 37.9961L142.361 37.9961V45.8916H155.657V56.043H142.361V74.5H130.228V27.8447L156.956 27.8447V37.9961Z" fill="#FF4500"/>
<path d="M213.763 51.3262C213.763 57.6608 211.655 63.2207 207.439 68.0059C202.632 73.4518 196.126 76.1748 187.923 76.1748C179.743 76.1748 173.248 73.4518 168.44 68.0059C164.225 63.2207 162.117 57.6608 162.117 51.3262C162.117 48.4323 162.687 45.4701 163.826 42.4395C164.965 39.3861 166.492 36.777 168.406 34.6123C173.214 29.1663 179.72 26.4434 187.923 26.4434C196.126 26.4434 202.632 29.1663 207.439 34.6123C211.655 39.3975 213.763 44.9688 213.763 51.3262ZM201.15 51.3262C201.15 48.0449 200.102 45.208 198.006 42.8154C195.317 39.762 191.956 38.2354 187.923 38.2354C185.143 38.2354 182.625 39.0215 180.369 40.5938C178.113 42.1432 176.507 44.2168 175.55 46.8145C175.003 48.2956 174.729 49.7995 174.729 51.3262C174.729 54.4707 175.778 57.2848 177.874 59.7686C180.472 62.8447 183.821 64.3828 187.923 64.3828C192.024 64.3828 195.385 62.8561 198.006 59.8027C200.102 57.3646 201.15 54.5391 201.15 51.3262Z" fill="#FF4500"/>
<path d="M249.139 37.9961L239.09 37.9961V74.5H226.956V37.9961H217.078V27.8447L249.139 27.8447V37.9961Z" fill="#FF4500"/>
<path d="M281.062 74.5H254.505V27.8447L281.062 27.8447V37.9961H266.639V45.8916L280.276 45.8916V56.043L266.639 56.043V64.3486H281.062V74.5Z" fill="#FF4500"/>
<path d="M333.084 74.5H320.13L317.122 66.3652H300.374L297.161 74.5L284.344 74.5L302.288 27.8447L315.516 27.8447L333.084 74.5ZM313.841 57.1367L308.816 42.2686L303.724 57.1367L313.841 57.1367Z" fill="#FF4500"/>
<path d="M394.847 74.5H382.713L379.261 47.6348L367.981 74.5H363.162L352.396 47.6348L348.431 74.5H336.365L344.295 27.8447L356.258 27.8447L365.726 52.7275L375.74 27.8447L387.806 27.8447L394.847 74.5Z" fill="#FF4500"/>
<path d="M509.585 65.365C513.81 65.365 517.32 62.895 517.32 57.435V26.43H528.89V58.41C528.89 69.72 521.09 76.09 509.585 76.09C498.21 76.09 490.54 69.72 490.54 58.41V26.43H502.11V57.435C502.11 62.895 505.425 65.365 509.585 65.365ZM535.481 26.43H547.051V74.66H535.481V26.43ZM581.261 64.91V74.66H569.886V26.43H581.261V47.945L596.666 26.43H609.276L594.846 46.905L609.796 74.66H597.446L587.371 56.655L581.261 64.91ZM612.781 38.91H624.026V74.66H612.781V38.91ZM624.026 35.14H612.781V26.43H624.026V35.14ZM644.43 59.645C644.43 62.375 644.755 63.675 646.185 64.195C647.16 64.52 648.005 64.455 650.085 63.74L651.97 73.685C648.59 75.245 643.13 75.83 639.295 74.335C634.81 72.515 633.185 68.55 633.185 61.725V49.05H627.335V38.91H633.185V26.43H644.43V38.91H651.71V49.05H644.43V59.645Z" fill="white"/>
<path d="M470.5 0L472.179 7.82062L480 9.5L472.179 11.1794L470.5 19L468.821 11.1794L461 9.5L468.821 7.82062L470.5 0Z" fill="white"/>
<rect x="485" y="9" width="176" height="1" fill="white"/>
<path d="M675.5 0L677.179 7.82062L685 9.5L677.179 11.1794L675.5 19L673.821 11.1794L666 9.5L673.821 7.82062L675.5 0Z" fill="white"/>
<path d="M470.5 83L472.179 90.8206L480 92.5L472.179 94.1794L470.5 102L468.821 94.1794L461 92.5L468.821 90.8206L470.5 83Z" fill="white"/>
<rect x="485" y="92" width="176" height="1" fill="white"/>
<path d="M675.5 83L677.179 90.8206L685 92.5L677.179 94.1794L675.5 102L673.821 94.1794L666 92.5L673.821 90.8206L675.5 83Z" fill="white"/>
</svg>
